<svg width="156" height="25" viewBox="0 0 156 25" fill="none" xmlns="http://www.w3.org/2000/svg">
<path d="M1.86719 24C1.00781 24 0.578125 23.5972 0.578125 22.7915V2.10205C0.578125 1.29639 1.00781 0.893555 1.86719 0.893555H7.3457C11.4707 0.893555 14.2529 1.40381 15.6924 2.42432C17.1426 3.43408 17.8677 4.9917 17.8677 7.09717C17.8677 8.56885 17.3252 9.70752 16.2402 10.5132C15.166 11.3188 14.124 11.7861 13.1143 11.915V11.9634C14.0918 12.0278 15.2412 12.522 16.5625 13.4458C17.8838 14.3696 18.5444 15.6748 18.5444 17.3613C18.5444 19.3379 17.7388 20.9385 16.1274 22.1631C14.5161 23.3877 11.8574 24 8.15137 24H1.86719ZM5.2832 20.0684H7.63574C9.91309 20.0684 11.46 19.8696 12.2764 19.4722C13.1035 19.0747 13.5171 18.269 13.5171 17.0552C13.5171 15.9165 13.0391 15.1323 12.083 14.7026C11.1377 14.2622 9.65527 14.042 7.63574 14.042H5.2832V20.0684ZM5.2832 10.2393H7.39404C8.77979 10.2393 10.0742 9.99756 11.2773 9.51416C12.4912 9.03076 13.0981 8.27881 13.0981 7.2583C13.0981 6.46338 12.7598 5.86182 12.083 5.45361C11.417 5.03467 9.854 4.8252 7.39404 4.8252H5.2832V10.2393ZM21.5254 19.4883C21.5254 17.3398 22.5513 15.7822 24.603 14.8154C26.6548 13.8486 28.9966 13.333 31.6284 13.2686V12.624C31.6284 11.6357 31.3813 10.9375 30.8872 10.5293C30.3931 10.1211 29.7056 9.91699 28.8247 9.91699C28.2017 9.91699 27.6484 10.0083 27.165 10.1909C26.6924 10.3628 26.2788 10.5669 25.9243 10.8032C25.5806 11.0288 25.269 11.2598 24.9897 11.4961C24.4956 11.9258 24.0874 11.9473 23.7651 11.5605L22.4277 9.91699C22.0947 9.50879 22.1753 9.08984 22.6694 8.66016C23.0454 8.32715 23.4805 8.03711 23.9746 7.79004C24.4795 7.54297 25.1455 7.31201 25.9727 7.09717C26.7998 6.87158 27.874 6.75879 29.1953 6.75879C31.4297 6.75879 33.1431 7.27441 34.3354 8.30566C35.5386 9.33691 36.1401 10.8569 36.1401 12.8657V23.0332C36.1401 23.6777 35.8179 24 35.1733 24H32.5308C31.9507 24 31.6606 23.6777 31.6606 23.0332V22.5498H31.6284C30.9946 23.1621 30.2319 23.6133 29.3403 23.9033C28.4595 24.1826 27.6484 24.3223 26.9072 24.3223C25.1455 24.3223 23.8081 23.8926 22.895 23.0332C21.9819 22.1631 21.5254 20.9814 21.5254 19.4883ZM26.2949 19.3916C26.2949 19.7676 26.3701 20.0952 26.5205 20.3745C26.6709 20.6431 26.9072 20.8418 27.2295 20.9707C27.5518 21.0996 27.9116 21.1641 28.3091 21.1641C28.8569 21.1641 29.3887 21.0889 29.9043 20.9385C30.4199 20.7881 30.9946 20.4336 31.6284 19.875V16.3784C29.8237 16.5825 28.6152 16.8457 28.0029 17.168C27.3906 17.4902 26.9502 17.8232 26.6816 18.167C26.4238 18.5107 26.2949 18.9189 26.2949 19.3916ZM41.5059 24C40.8613 24 40.5391 23.6777 40.5391 23.0332V8.04785C40.5391 7.40332 40.8613 7.08105 41.5059 7.08105H44.0518C44.6963 7.08105 45.0186 7.40332 45.0186 8.04785V8.98242H45.083C45.5771 8.13379 46.2056 7.55371 46.9683 7.24219C47.731 6.91992 48.6494 6.75879 49.7236 6.75879C51.3994 6.75879 52.7852 7.28516 53.8809 8.33789C54.9766 9.39062 55.5244 11.3135 55.5244 14.1064V23.0332C55.5244 23.6777 55.2021 24 54.5576 24H51.9795C51.335 24 51.0127 23.6777 51.0127 23.0332V15.2666C51.0127 12.9248 50.8516 11.4478 50.5293 10.8354C50.207 10.2231 49.5142 9.91699 48.4507 9.91699C47.3228 9.91699 46.4741 10.3574 45.9048 11.2383C45.3354 12.1084 45.0508 13.9238 45.0508 16.6846V23.0332C45.0508 23.6777 44.7285 24 44.084 24H41.5059ZM60.8418 24C60.1973 24 59.875 23.6777 59.875 23.0332V1.18359C59.875 0.539062 60.1973 0.216797 60.8418 0.216797H63.4199C64.0645 0.216797 64.3867 0.539062 64.3867 1.18359V13.0269C64.3867 13.4565 64.3652 13.8862 64.3223 14.3159H64.3867L69.4946 7.7417C69.8384 7.30127 70.2573 7.08105 70.7515 7.08105H73.394C74.3823 7.08105 74.5488 7.47852 73.8936 8.27344L69.0273 14.1548L74.667 22.8076C75.1826 23.6025 75.0161 24 74.1675 24H71.4121C70.875 24 70.4346 23.7207 70.0908 23.1621L66.4331 17.2808L64.3867 19.7461V23.0332C64.3867 23.6777 64.0645 24 63.4199 24H60.8418Z" fill="white"/>
<path d="M77.1162 23.6938C76.5469 23.3608 76.332 22.958 76.4717 22.4854L77.1484 20.2778C77.3418 19.644 77.8467 19.5796 78.6631 20.0845C79.3613 20.5249 80.1401 20.7451 80.9995 20.7451C82.1812 20.7451 82.9492 20.3369 83.3037 19.5205C83.6689 18.7041 83.8516 17.3452 83.8516 15.4438V2.10205C83.8516 1.29639 84.2275 0.893555 84.9795 0.893555H87.4287C88.1807 0.893555 88.5566 1.29639 88.5566 2.10205V15.1216C88.5566 19.0747 87.8906 21.6367 86.5586 22.8076C85.2373 23.9678 83.4004 24.5479 81.0479 24.5479C79.4043 24.5479 78.0938 24.2632 77.1162 23.6938ZM92.2305 15.5405C92.2305 12.8013 92.9341 10.6528 94.3413 9.09521C95.7593 7.5376 97.8647 6.75879 100.658 6.75879C103.451 6.75879 105.551 7.5376 106.958 9.09521C108.376 10.6528 109.085 12.8013 109.085 15.5405C109.085 18.2798 108.376 20.4282 106.958 21.9858C105.551 23.5435 103.451 24.3223 100.658 24.3223C97.8647 24.3223 95.7593 23.5435 94.3413 21.9858C92.9341 20.4282 92.2305 18.2798 92.2305 15.5405ZM97 15.5405C97 17.5815 97.3115 19.0317 97.9346 19.8911C98.5684 20.7397 99.4761 21.1641 100.658 21.1641C101.839 21.1641 102.742 20.7397 103.365 19.8911C103.999 19.0317 104.315 17.5815 104.315 15.5405C104.315 13.4995 103.999 12.0547 103.365 11.2061C102.742 10.3467 101.839 9.91699 100.658 9.91699C99.4761 9.91699 98.5684 10.3467 97.9346 11.2061C97.3115 12.0547 97 13.4995 97 15.5405ZM113.532 24C112.888 24 112.565 23.6777 112.565 23.0332V8.04785C112.565 7.40332 112.888 7.08105 113.532 7.08105H116.078C116.723 7.08105 117.045 7.40332 117.045 8.04785V8.98242H117.109C117.604 8.13379 118.232 7.55371 118.995 7.24219C119.757 6.91992 120.676 6.75879 121.75 6.75879C123.426 6.75879 124.812 7.28516 125.907 8.33789C127.003 9.39062 127.551 11.3135 127.551 14.1064V23.0332C127.551 23.6777 127.229 24 126.584 24H124.006C123.361 24 123.039 23.6777 123.039 23.0332V15.2666C123.039 12.9248 122.878 11.4478 122.556 10.8354C122.233 10.2231 121.541 9.91699 120.477 9.91699C119.349 9.91699 118.5 10.3574 117.931 11.2383C117.362 12.1084 117.077 13.9238 117.077 16.6846V23.0332C117.077 23.6777 116.755 24 116.11 24H113.532ZM130.999 15.5405C130.999 12.8228 131.676 10.6797 133.029 9.11133C134.394 7.54297 136.316 6.75879 138.798 6.75879C141.677 6.75879 143.814 7.5 145.211 8.98242C146.607 10.4648 147.306 12.8496 147.306 16.1367C147.306 16.7812 147.005 17.1035 146.403 17.1035H135.769C135.94 18.8867 136.381 20.0093 137.09 20.4712C137.799 20.9331 138.621 21.1641 139.555 21.1641C140.447 21.1641 141.129 21.0459 141.602 20.8096C142.074 20.5732 142.472 20.251 142.794 19.8428C143.159 19.3701 143.61 19.2949 144.147 19.6172L145.759 20.6001C146.393 20.9868 146.484 21.4487 146.033 21.9858C145.377 22.77 144.609 23.3555 143.729 23.7422C142.848 24.1289 141.457 24.3223 139.555 24.3223C136.472 24.3223 134.275 23.5381 132.965 21.9697C131.654 20.4014 130.999 18.2583 130.999 15.5405ZM135.785 13.8809H142.794C142.794 12.7207 142.504 11.7754 141.924 11.0449C141.344 10.3037 140.42 9.93311 139.152 9.93311C138.143 9.93311 137.342 10.2876 136.751 10.9966C136.161 11.6948 135.838 12.6562 135.785 13.8809ZM151.753 24C151.001 24 150.625 23.5972 150.625 22.7915V20.6323C150.625 19.8267 151.001 19.4238 151.753 19.4238H154.202C154.954 19.4238 155.33 19.8267 155.33 20.6323V22.7915C155.33 23.5972 154.954 24 154.202 24H151.753Z" fill="black"/>
</svg>
